PathFileType	4	(X/Y/Z)	9_2_37_p1_0-133.trc
DataRate	CameraRate	NumFrames	NumMarkers	Units	OrigDataRate	OrigDataStartFrame	OrigNumFrames
58.0	58.0	6	27	m	58.0	117	134
Frame#	Time	RHip			RKnee			RAnkle			RBigToe			RSmallToe			RHeel			LHip			LKnee			LAnkle			LBigToe			LSmallToe			LHeel			Neck			Head			Nose			RShoulder			RElbow			RWrist			RThumb			RIndex			RPinky			LShoulder			LElbow			LWrist			LThumb			LIndex			LPinky			
		X1	Y1	Z1	X2	Y2	Z2	X3	Y3	Z3	X4	Y4	Z4	X5	Y5	Z5	X6	Y6	Z6	X7	Y7	Z7	X8	Y8	Z8	X9	Y9	Z9	X10	Y10	Z10	X11	Y11	Z11	X12	Y12	Z12	X13	Y13	Z13	X14	Y14	Z14	X15	Y15	Z15	X16	Y16	Z16	X17	Y17	Z17	X18	Y18	Z18	X19	Y19	Z19	X20	Y20	Z20	X21	Y21	Z21	X22	Y22	Z22	X23	Y23	Z23	X24	Y24	Z24	X25	Y25	Z25	X26	Y26	Z26	X27	Y27	Z27	
117	2.0172413793103448	0.32958426302165417	0.4703805436472416	1.1510447912788215	0.3032708845907	0.5416892329345353	1.5156959790428088	0.2970560300802951	0.5980892629600254	1.9187729421001396	0.27838030551095544	0.3772761457406632	1.8737816176175808	0.3389284339475531	0.3964972820435863	1.8756670165529583	0.2788631795375319	0.6907672182216936	1.988190383227489	0.1113857635043111	0.43775112421619555	1.1491085646413521	0.11346197488798662	0.5459125872007183	1.5005582943551938	0.09358443706600854	0.6032182790070778	1.8893332448609292	0.11515027362528658	0.3689997888870253	1.8573152306442025	0.06425875859087962	0.4141024566976391	1.8571829297027718	0.08595577783225396	0.7276388399327185	1.9920073124128446	0.22969519102598848	0.37269694294429906	0.5963451377201691	0.23038474954488078	0.3410235781159801	0.34585273860933746	0.22778397495879749	0.29483542099521387	0.4869258731199003	0.3738991428935834	0.3846796498943872	0.6938096563176602	0.3909293770939584	0.3652437279967066	0.9467381543765679	0.25251047373207214	0.2934988936050315	1.1058419692108372	0.12526221941582752	0.25051635558043145	1.177627473256855	0.11656072860390262	0.2739073309623992	1.1979919350105324	0.18871532944090585	0.31085442252428197	1.2355466931038286	0.0625719595339296	0.41072746009108024	0.6904342546708158	0.03048988871808629	0.3697558593789431	0.9356103207351393	0.1488558430453939	0.3123298342255938	1.1123493237404478	0.210084038459086	0.2947030997806358	1.1927747438197143	0.2034366072769759	0.27872972407323293	1.2189176799645318	0.13676068841398342	0.3072308692482244	1.2160912372430919
118	2.0344827586206895	0.3295903071562155	0.4704703022730163	1.1512809197404745	0.30426846493093734	0.5395628639404928	1.5144352154045302	0.2980620314924102	0.5977588510076425	1.9141108220245504	0.27519999435622455	0.3646806620728812	1.8671970254781856	0.3378558286539213	0.3944761625665688	1.8702091608430338	0.2803944644407713	0.6946850173202156	1.9956793036168825	0.10588426362875353	0.45160095339691764	1.1531899660770148	0.1144579510350971	0.546192235814354	1.5089451947228212	0.09357442891556915	0.603293440103675	1.8894397946874946	0.11515131344845213	0.3689545688235513	1.8571976357132707	0.06426116616121208	0.41391736247451466	1.8571800994484369	0.08316421540390188	0.7141650927376391	1.985517084653954	0.22969799432854285	0.37262776548363785	0.5963827873038023	0.23055858752257596	0.3421899368104997	0.3493973941010251	0.22365355443834598	0.3068124058208041	0.4879754326715846	0.37385576549636396	0.384469536185256	0.6937881713874984	0.3864445953753073	0.3791412726228511	0.9536642377837291	0.2551686642624869	0.30520914434118634	1.1089111958288622	0.1207477427875349	0.2614044765244794	1.1812984854781419	0.11206323318134243	0.2856203310764107	1.202032010036664	0.188987951069578	0.31111113087097153	1.234756410049501	0.06253138778893175	0.4108994379181227	0.6905275488219402	0.03286377139428253	0.38172255631156443	0.9380391930125678	0.1516344185261385	0.3246572757029378	1.1155687942855368	0.21069716799732902	0.2872441164706801	1.1902752850546905	0.19971964653109642	0.2690089268473697	1.2122045423949932	0.13336379699320985	0.297374863115782	1.2098262308377885
119	2.0517241379310347	0.3209849170312901	0.48376957581589397	1.155241402683483	0.30428187061510586	0.5395490522930542	1.5145375117663322	0.2971583691418416	0.5986464879190727	1.9189548319572856	0.2783209115837172	0.37701191014833135	1.8737041480630412	0.3378825474237877	0.39438344018725374	1.8701362435724533	0.2801885060730353	0.6936723702325409	1.9949622415214907	0.10587469298698787	0.4516764547784231	1.1530807284259794	0.11385157351957716	0.5443136655367299	1.5038376147168917	0.09357602727841002	0.6032119461375499	1.8893751507588055	0.11510439817699958	0.3689453043569722	1.857250792997261	0.06423013059456417	0.4138575458661163	1.857237566735587	0.08306853437820295	0.7135417382641182	1.9848552376132473	0.22971110657060112	0.3726148973680066	0.5963711750378914	0.2304141234135371	0.34230305910373243	0.3526097890608847	0.2169020977115866	0.2941155190711297	0.4872172830973078	0.37384369055235983	0.3844775479747661	0.6937820703215638	0.3908066161343873	0.365299606081182	0.9468309649601702	0.2538565853927794	0.3301586855871396	1.1161743010314655	0.11620418018204157	0.272056574677185	1.1816918581948326	0.11392890819986999	0.2967690164208948	1.2051145191304768	0.1881864226345994	0.3138987997102781	1.2281705829773046	0.06255199543541871	0.41091648632158445	0.690522047620529	0.03351017198858559	0.3813302702677907	0.9344136440256576	0.15833178796818337	0.3388354747698113	1.119262983229303	0.20667135775931486	0.2916950110938939	1.1869582532227654	0.19147456195042004	0.27875711066523284	1.2153738830961849	0.13623484297176897	0.30958289594738003	1.2134230937164125
120	2.0689655172413794	0.32109417251748457	0.484807239124043	1.1476652812015076	0.3039559146483227	0.541374251011269	1.5106949867940833	0.3018728695631253	0.5820868237189178	1.9100857011501902	0.27421533708965495	0.36540152855521607	1.872105685415585	0.3340012414895701	0.3828736066134662	1.869041763576713	0.2802001542172259	0.6944412619439071	1.9957166368866137	0.10076130740474602	0.46638736772351264	1.149966625398815	0.11586826656556068	0.5450033900261185	1.5042609945355432	0.09789066101793123	0.6055403818124726	1.8903881539033016	0.11298977179726988	0.3563496081430413	1.8506127908215464	0.06421429834489319	0.41364987208709136	1.8575126573715406	0.09606313955783218	0.7161575587323237	1.9924502566120434	0.229742702148421	0.37274751743824885	0.5964784732526359	0.23043517837146904	0.34230611178467374	0.3526031923822892	0.21686959543236342	0.2939566403266361	0.48720769914029494	0.3738613278128405	0.3847166318449073	0.6937524964437093	0.38703464505905877	0.37888085158356233	0.9501164537014488	0.25829954315789017	0.3174827980409246	1.112098039638028	0.11249784307174397	0.2805984149837367	1.1740521166872009	0.10974849863417044	0.30820381346265063	1.2052286905291247	0.18316973243143014	0.327966683632447	1.2289662598236437	0.06256366843719231	0.4111815353088021	0.6904708730068353	0.03673467643209441	0.38369128749849013	0.9382579594975866	0.1545037421249231	0.3516452367210034	1.1194407786216085	0.19891215489084693	0.30135115572418064	1.1849050754635897	0.19042966193154104	0.28144834852006223	1.2093833537848007	0.13688616030951947	0.3132969188217667	1.2114697738368438
121	2.086206896551724	0.32079731596944805	0.48423522199730384	1.1557645272511103	0.3024376912473955	0.5396254954921781	1.5105658639770043	0.2971981574151773	0.5985341455583614	1.9189398768882708	0.27429228274254996	0.36549162693417203	1.8720274271262713	0.33493559636234	0.38172272690040265	1.8642507283663683	0.2789472995553927	0.691940281819435	1.9889754617741835	0.09999606217641685	0.46708006231529864	1.154141935529597	0.11539581580089106	0.543789392756	1.4995432256673946	0.09372026650671683	0.6031806761066633	1.8894369751090694	0.11310838442699159	0.3561195692250435	1.8504684794127872	0.06433183988376072	0.4134028335486066	1.8575414936363512	0.09608474428402042	0.7166797208596601	1.9929751883167657	0.22529468371276476	0.3852365869458079	0.5980063973081273	0.23042334529504932	0.34228038979940856	0.35262169641516367	0.21652939172438648	0.29244541651516426	0.4840789669610426	0.3738515058026611	0.38480972055462176	0.6938364700312561	0.38713483751348615	0.3788187801162991	0.949960091699692	0.25397955635011943	0.3306464050532393	1.115978687840179	0.11254614833850983	0.2797206191009212	1.1626495698945463	0.10745101847101192	0.2987018917768034	1.1982472787658096	0.18253041545175983	0.33026562072799487	1.2255051140495312	0.062278364499616136	0.41199434976293525	0.6867595466347277	0.03676990697709872	0.3838886007534296	0.9383052342779572	0.15693268979409375	0.36366082023820046	1.122605893827879	0.19649397389108003	0.29079355950196517	1.1760891750303801	0.19020707105021803	0.28272185972452235	1.206075960187945	0.14702676811334198	0.348682827621437	1.222156219636016
122	2.103448275862069	0.3160838196123065	0.5000171526975332	1.156872004205867	0.302285821593227	0.5399283035589778	1.5103787619790108	0.29713094021488345	0.5989900709434569	1.9190775639472362	0.2753709130342768	0.36449835346739967	1.8676661976732847	0.3350736577556125	0.381955012542382	1.8644026410449819	0.27992214287663103	0.695047770735482	1.9960867204340564	0.09901172195435205	0.4788011368564924	1.1575095438972156	0.11589287999804408	0.5449570802532505	1.504327679726232	0.09794786580693908	0.6057418888069207	1.8904862091309858	0.11308674995208697	0.35594693652685644	1.8503659863609623	0.06437503166064368	0.4131760656880836	1.8571998193461556	0.09589860767869963	0.7190775660414012	1.9895870020210344	0.22524463911994902	0.3854327498604291	0.5981228883035119	0.23042907475031535	0.3422115299074442	0.35256971013130306	0.22104729178268098	0.28160854453760026	0.48631567134299686	0.36975257262392985	0.3981677697117982	0.6958826441810501	0.38650131389208203	0.379769423399263	0.9540001516558307	0.2565622078620332	0.3439877955670015	1.1152074290341767	0.11676797405293934	0.3051278931799762	1.1737567209043995	0.11820534922057105	0.3233231766554343	1.1983656477159024	0.18514447701158665	0.3445057442527552	1.2257599006345583	0.062267815754400505	0.41202264900095953	0.6866601492119959	0.03677134716761596	0.3840592079854971	0.9382945891158038	0.15406335582234154	0.3528856251647004	1.1154871065900906	0.20663182773912078	0.30919560012714853	1.179271805847744	0.1960432186934634	0.30475796607470634	1.2013000013421795	0.14424768678968308	0.3364368488376199	1.2175152948591874
